<mxfile host="Electron" modified="2023-12-23T02:12:36.914Z" agent="Mozilla/5.0 (Windows NT 10.0; Win64; x64) AppleWebKit/537.36 (KHTML, like Gecko) draw.io/22.1.2 Chrome/114.0.5735.289 Electron/25.9.4 Safari/537.36" etag="rH0S3T3bBk8USlqX9k0i" version="22.1.2" type="device">
  <diagram name="Страница — 1" id="nFjXstA0O0MtBKJBe1p9">
    <mxGraphModel dx="983" dy="2923" grid="1" gridSize="10" guides="1" tooltips="1" connect="1" arrows="1" fold="1" page="1" pageScale="1" pageWidth="827" pageHeight="1169" math="0" shadow="1">
      <root>
        <mxCell id="0" />
        <mxCell id="1" parent="0" />
        <mxCell id="C_GbPCmIy_xTi42q_sb_-1" value="" style="ellipse;whiteSpace=wrap;html=1;fillColor=#000000;" vertex="1" parent="1">
          <mxGeometry x="40" y="200" width="40" height="40" as="geometry" />
        </mxCell>
        <mxCell id="C_GbPCmIy_xTi42q_sb_-2" value="" style="endArrow=classic;html=1;rounded=0;exitX=1;exitY=0.5;exitDx=0;exitDy=0;" edge="1" parent="1" source="C_GbPCmIy_xTi42q_sb_-1">
          <mxGeometry width="50" height="50" relative="1" as="geometry">
            <mxPoint x="280" y="400" as="sourcePoint" />
            <mxPoint x="159.9999999999999" y="220" as="targetPoint" />
          </mxGeometry>
        </mxCell>
        <mxCell id="C_GbPCmIy_xTi42q_sb_-3" value="&lt;font style=&quot;font-size: 20px;&quot;&gt;АВТОРИЗАЦИЯ&lt;/font&gt;" style="swimlane;fontStyle=0;childLayout=stackLayout;horizontal=1;startSize=26;fillColor=none;horizontalStack=0;resizeParent=1;resizeParentMax=0;resizeLast=0;collapsible=1;marginBottom=0;whiteSpace=wrap;html=1;" vertex="1" parent="1">
          <mxGeometry x="160" y="175" width="210" height="90" as="geometry">
            <mxRectangle x="160" y="188" width="190" height="40" as="alternateBounds" />
          </mxGeometry>
        </mxCell>
        <mxCell id="C_GbPCmIy_xTi42q_sb_-4" value="&lt;font style=&quot;font-size: 20px;&quot;&gt;- Войти&lt;br&gt;- Регистрация&lt;br&gt;&lt;/font&gt;" style="text;strokeColor=none;fillColor=none;align=left;verticalAlign=top;spacingLeft=4;spacingRight=4;overflow=hidden;rotatable=0;points=[[0,0.5],[1,0.5]];portConstraint=eastwest;whiteSpace=wrap;html=1;" vertex="1" parent="C_GbPCmIy_xTi42q_sb_-3">
          <mxGeometry y="26" width="210" height="64" as="geometry" />
        </mxCell>
        <mxCell id="C_GbPCmIy_xTi42q_sb_-5" value="&lt;font style=&quot;font-size: 20px;&quot;&gt;ОКНО ОПЕРАТОРА&lt;/font&gt;" style="swimlane;fontStyle=0;childLayout=stackLayout;horizontal=1;startSize=26;fillColor=none;horizontalStack=0;resizeParent=1;resizeParentMax=0;resizeLast=0;collapsible=1;marginBottom=0;whiteSpace=wrap;html=1;" vertex="1" parent="1">
          <mxGeometry x="590" y="175" width="210" height="90" as="geometry">
            <mxRectangle x="160" y="188" width="190" height="40" as="alternateBounds" />
          </mxGeometry>
        </mxCell>
        <mxCell id="C_GbPCmIy_xTi42q_sb_-6" value="&lt;font style=&quot;font-size: 20px;&quot;&gt;- Список заявок&lt;br&gt;- Выход&lt;br&gt;&lt;/font&gt;" style="text;strokeColor=none;fillColor=none;align=left;verticalAlign=top;spacingLeft=4;spacingRight=4;overflow=hidden;rotatable=0;points=[[0,0.5],[1,0.5]];portConstraint=eastwest;whiteSpace=wrap;html=1;" vertex="1" parent="C_GbPCmIy_xTi42q_sb_-5">
          <mxGeometry y="26" width="210" height="64" as="geometry" />
        </mxCell>
        <mxCell id="C_GbPCmIy_xTi42q_sb_-7" value="&lt;font style=&quot;font-size: 15px;&quot;&gt;Авторизировался оператор&lt;/font&gt;" style="text;html=1;strokeColor=none;fillColor=none;align=center;verticalAlign=middle;whiteSpace=wrap;rounded=0;" vertex="1" parent="1">
          <mxGeometry x="380" y="165" width="210" height="40" as="geometry" />
        </mxCell>
        <mxCell id="C_GbPCmIy_xTi42q_sb_-8" value="&lt;font style=&quot;font-size: 15px;&quot;&gt;Нажата кнопка выход&lt;/font&gt;" style="text;html=1;strokeColor=none;fillColor=none;align=center;verticalAlign=middle;whiteSpace=wrap;rounded=0;" vertex="1" parent="1">
          <mxGeometry x="380" y="235" width="210" height="40" as="geometry" />
        </mxCell>
        <mxCell id="C_GbPCmIy_xTi42q_sb_-9" value="" style="curved=1;endArrow=classic;html=1;rounded=0;exitX=1;exitY=0.5;exitDx=0;exitDy=0;" edge="1" parent="1" source="C_GbPCmIy_xTi42q_sb_-8">
          <mxGeometry width="50" height="50" relative="1" as="geometry">
            <mxPoint x="610" y="330" as="sourcePoint" />
            <mxPoint x="370" y="235" as="targetPoint" />
            <Array as="points">
              <mxPoint x="590" y="260" />
              <mxPoint x="510" y="230" />
              <mxPoint x="430" y="225" />
            </Array>
          </mxGeometry>
        </mxCell>
        <mxCell id="C_GbPCmIy_xTi42q_sb_-11" value="" style="curved=1;endArrow=classic;html=1;rounded=0;exitX=1.003;exitY=0.262;exitDx=0;exitDy=0;exitPerimeter=0;entryX=-0.013;entryY=0.228;entryDx=0;entryDy=0;entryPerimeter=0;" edge="1" parent="1" source="C_GbPCmIy_xTi42q_sb_-4" target="C_GbPCmIy_xTi42q_sb_-6">
          <mxGeometry width="50" height="50" relative="1" as="geometry">
            <mxPoint x="414" y="175" as="sourcePoint" />
            <mxPoint x="580" y="218" as="targetPoint" />
            <Array as="points">
              <mxPoint x="464" y="190" />
              <mxPoint x="520" y="210" />
            </Array>
          </mxGeometry>
        </mxCell>
        <mxCell id="C_GbPCmIy_xTi42q_sb_-12" value="&lt;font style=&quot;font-size: 20px;&quot;&gt;ОКНО СПИСКА ЗАЯВОК&lt;/font&gt;" style="swimlane;fontStyle=0;childLayout=stackLayout;horizontal=1;startSize=26;fillColor=none;horizontalStack=0;resizeParent=1;resizeParentMax=0;resizeLast=0;collapsible=1;marginBottom=0;whiteSpace=wrap;html=1;" vertex="1" parent="1">
          <mxGeometry x="1000" y="175" width="280" height="140" as="geometry">
            <mxRectangle x="160" y="188" width="190" height="40" as="alternateBounds" />
          </mxGeometry>
        </mxCell>
        <mxCell id="C_GbPCmIy_xTi42q_sb_-13" value="&lt;font style=&quot;font-size: 20px;&quot;&gt;- Посмотреть заявки&lt;br&gt;- Изменить статус&lt;br&gt;- Сохранить&lt;br&gt;-Вернуться назад&lt;br&gt;&lt;/font&gt;" style="text;strokeColor=none;fillColor=none;align=left;verticalAlign=top;spacingLeft=4;spacingRight=4;overflow=hidden;rotatable=0;points=[[0,0.5],[1,0.5]];portConstraint=eastwest;whiteSpace=wrap;html=1;" vertex="1" parent="C_GbPCmIy_xTi42q_sb_-12">
          <mxGeometry y="26" width="280" height="114" as="geometry" />
        </mxCell>
        <mxCell id="C_GbPCmIy_xTi42q_sb_-15" value="" style="endArrow=none;html=1;rounded=0;entryX=1.015;entryY=0.272;entryDx=0;entryDy=0;entryPerimeter=0;endFill=0;startArrow=classic;startFill=1;" edge="1" parent="1" target="C_GbPCmIy_xTi42q_sb_-6">
          <mxGeometry width="50" height="50" relative="1" as="geometry">
            <mxPoint x="1000" y="218" as="sourcePoint" />
            <mxPoint x="1070" y="290" as="targetPoint" />
          </mxGeometry>
        </mxCell>
        <mxCell id="C_GbPCmIy_xTi42q_sb_-16" value="" style="endArrow=none;html=1;rounded=0;endFill=0;startArrow=classic;startFill=1;" edge="1" parent="1">
          <mxGeometry width="50" height="50" relative="1" as="geometry">
            <mxPoint x="800" y="250" as="sourcePoint" />
            <mxPoint x="1000" y="250" as="targetPoint" />
          </mxGeometry>
        </mxCell>
        <mxCell id="C_GbPCmIy_xTi42q_sb_-18" value="&lt;font style=&quot;font-size: 15px;&quot;&gt;Нажата кнопка назад&lt;/font&gt;" style="text;html=1;strokeColor=none;fillColor=none;align=center;verticalAlign=middle;whiteSpace=wrap;rounded=0;" vertex="1" parent="1">
          <mxGeometry x="800" y="250" width="210" height="40" as="geometry" />
        </mxCell>
        <mxCell id="C_GbPCmIy_xTi42q_sb_-19" value="&lt;font style=&quot;font-size: 15px;&quot;&gt;Нажата кнопка&lt;br&gt;&amp;nbsp;Список заявок&lt;/font&gt;" style="text;html=1;strokeColor=none;fillColor=none;align=center;verticalAlign=middle;whiteSpace=wrap;rounded=0;" vertex="1" parent="1">
          <mxGeometry x="790" y="175" width="210" height="40" as="geometry" />
        </mxCell>
        <mxCell id="C_GbPCmIy_xTi42q_sb_-20" value="&lt;font style=&quot;font-size: 20px;&quot;&gt;ОКНО ИНФОРМАЦИИ О ЗАЯВКЕ&lt;br&gt;&lt;/font&gt;" style="swimlane;fontStyle=0;childLayout=stackLayout;horizontal=1;startSize=26;fillColor=none;horizontalStack=0;resizeParent=1;resizeParentMax=0;resizeLast=0;collapsible=1;marginBottom=0;whiteSpace=wrap;html=1;" vertex="1" parent="1">
          <mxGeometry x="960" y="-120" width="380" height="90" as="geometry">
            <mxRectangle x="160" y="188" width="190" height="40" as="alternateBounds" />
          </mxGeometry>
        </mxCell>
        <mxCell id="C_GbPCmIy_xTi42q_sb_-21" value="&lt;font style=&quot;font-size: 20px;&quot;&gt;- Информация о заявке&lt;br&gt;- Вернуться назад&lt;br&gt;&lt;/font&gt;" style="text;strokeColor=none;fillColor=none;align=left;verticalAlign=top;spacingLeft=4;spacingRight=4;overflow=hidden;rotatable=0;points=[[0,0.5],[1,0.5]];portConstraint=eastwest;whiteSpace=wrap;html=1;" vertex="1" parent="C_GbPCmIy_xTi42q_sb_-20">
          <mxGeometry y="26" width="380" height="64" as="geometry" />
        </mxCell>
        <mxCell id="C_GbPCmIy_xTi42q_sb_-23" value="" style="endArrow=classic;html=1;rounded=0;exitX=0.713;exitY=0.004;exitDx=0;exitDy=0;exitPerimeter=0;entryX=0.63;entryY=1.026;entryDx=0;entryDy=0;entryPerimeter=0;" edge="1" parent="1" source="C_GbPCmIy_xTi42q_sb_-12" target="C_GbPCmIy_xTi42q_sb_-21">
          <mxGeometry width="50" height="50" relative="1" as="geometry">
            <mxPoint x="1160" y="320" as="sourcePoint" />
            <mxPoint x="1210" y="270" as="targetPoint" />
          </mxGeometry>
        </mxCell>
        <mxCell id="C_GbPCmIy_xTi42q_sb_-25" value="" style="endArrow=none;html=1;rounded=0;exitX=0.713;exitY=0.004;exitDx=0;exitDy=0;exitPerimeter=0;entryX=0.417;entryY=1.038;entryDx=0;entryDy=0;entryPerimeter=0;endFill=0;startArrow=classic;startFill=1;" edge="1" parent="1" target="C_GbPCmIy_xTi42q_sb_-21">
          <mxGeometry width="50" height="50" relative="1" as="geometry">
            <mxPoint x="1121" y="175" as="sourcePoint" />
            <mxPoint x="1120" y="1" as="targetPoint" />
          </mxGeometry>
        </mxCell>
        <mxCell id="C_GbPCmIy_xTi42q_sb_-26" value="&lt;font style=&quot;font-size: 15px;&quot;&gt;Нажата кнопка &lt;br&gt;Посмотреть&lt;/font&gt;" style="text;html=1;strokeColor=none;fillColor=none;align=center;verticalAlign=middle;whiteSpace=wrap;rounded=0;" vertex="1" parent="1">
          <mxGeometry x="1200" y="60" width="130" height="40" as="geometry" />
        </mxCell>
        <mxCell id="C_GbPCmIy_xTi42q_sb_-28" value="&lt;font style=&quot;font-size: 15px;&quot;&gt;Нажата кнопка &lt;br&gt;Назад&lt;/font&gt;" style="text;html=1;strokeColor=none;fillColor=none;align=center;verticalAlign=middle;whiteSpace=wrap;rounded=0;" vertex="1" parent="1">
          <mxGeometry x="990" y="60" width="130" height="40" as="geometry" />
        </mxCell>
        <mxCell id="C_GbPCmIy_xTi42q_sb_-29" value="" style="ellipse;whiteSpace=wrap;html=1;" vertex="1" parent="1">
          <mxGeometry x="671" y="410" width="50" height="50" as="geometry" />
        </mxCell>
        <mxCell id="C_GbPCmIy_xTi42q_sb_-30" value="" style="ellipse;whiteSpace=wrap;html=1;fillColor=#000000;" vertex="1" parent="1">
          <mxGeometry x="681" y="420" width="30" height="30" as="geometry" />
        </mxCell>
        <mxCell id="C_GbPCmIy_xTi42q_sb_-31" value="&lt;span style=&quot;font-size: 15px;&quot;&gt;Окно&lt;br&gt;закрыто&lt;/span&gt;" style="text;html=1;strokeColor=none;fillColor=none;align=center;verticalAlign=middle;whiteSpace=wrap;rounded=0;" vertex="1" parent="1">
          <mxGeometry x="690" y="320" width="80" height="40" as="geometry" />
        </mxCell>
        <mxCell id="C_GbPCmIy_xTi42q_sb_-32" value="" style="endArrow=classic;html=1;rounded=0;exitX=0.501;exitY=0.978;exitDx=0;exitDy=0;exitPerimeter=0;entryX=0.5;entryY=0;entryDx=0;entryDy=0;" edge="1" parent="1" source="C_GbPCmIy_xTi42q_sb_-6" target="C_GbPCmIy_xTi42q_sb_-29">
          <mxGeometry width="50" height="50" relative="1" as="geometry">
            <mxPoint x="660" y="420" as="sourcePoint" />
            <mxPoint x="710" y="370" as="targetPoint" />
          </mxGeometry>
        </mxCell>
      </root>
    </mxGraphModel>
  </diagram>
</mxfile>
